<svg xmlns="http://www.w3.org/2000/svg" viewBox="0 0 72.34 63.54"><title>small</title><g id="Layer_2" data-name="Layer 2"><g id="Layer_1-2" data-name="Layer 1"><path d="M47.49,3.78C54,5.56,59.62,8.94,65,13,71.71,18,70.21,30.6,68.6,37.9c-1.84,8.33-6.51,14.83-14.18,18.72C50,58.88,44.59,61.22,39.5,61.4c-9.17.32-19.42-2.37-26.33-8.6C7.81,48,4.93,40.81,3.23,33.93.64,23.44,4.39,14.34,13.3,8.36,23.37,1.61,36,1,47.49,3.78c1.41.33,2-1.84.6-2.17C36-1.27,22.77-.64,12.17,6.41,5.32,11,.14,18,0,26.41c-.13,8.06,3.22,17.71,8.08,24.16,15.23,20.2,53.46,16.35,61.7-8.42,2.64-7.95,4.45-21.28-.85-28.48-2.13-2.89-6.23-5.07-9.08-7a38.34,38.34,0,0,0-11.76-5A1.13,1.13,0,0,0,47.49,3.78Z"/><path d="M25.66,22.72C21.43,29,20.9,37.85,27.06,43.07c5.46,4.62,12.71,3.6,17.93-.9,4.64-4,6.11-12.91,1.34-17.12-5.65-5-13.41-8-19.95-2.9-1.14.89.46,2.47,1.59,1.59,5.34-4.15,13.29-1.27,17.36,3.44s.3,12.19-4.19,14.89-9.68,2.37-13.4-1.43c-4.59-4.69-3.52-11.8-.14-16.78.82-1.2-1.13-2.33-1.94-1.14Z"/><path d="M42.64,29.42a4.41,4.41,0,0,0-1.77-2,.92.92,0,0,0-.26-.21c-4.18-2.43-10.83-2.54-12,3.31-.39,1.9-.43,4.78.77,6.43A8.05,8.05,0,0,0,36,39.78C40.1,39.36,44.5,33.39,42.64,29.42Z"/></g></g></svg>